<svg height="512" viewBox="0 0 54 58" width="512" xmlns="http://www.w3.org/2000/svg">
  <g id="Page-1" fill="none" fill-rule="evenodd">
    <g id="001---Tracks" fill-rule="nonzero">
      <g fill="#a56a43">
        <path id="Shape"
          d="m9 5v10h-7.875c-.58550579.0307987-1.08694077-.4149213-1.125-1v-8c.03805923-.5850787.53949421-1.03079868 1.125-1z" />
        <path id="Shape"
          d="m9 24v10h-7.875c-.58550579.0307987-1.08694077-.4149213-1.125-1v-8c.03805923-.5850787.53949421-1.0307987 1.125-1z" />
        <path id="Shape"
          d="m9 43v10h-7.875c-.58550579.0307987-1.08694077-.4149213-1.125-1v-8c.03805923-.5850787.53949421-1.0307987 1.125-1z" />
        <path id="Shape"
          d="m54 6v8c-.0380592.5850787-.5394942 1.0307987-1.125 1h-7.875v-10h7.875c.5855058-.03079868 1.0869408.4149213 1.125 1z" />
        <path id="Shape"
          d="m54 25v8c-.0380592.5850787-.5394942 1.0307987-1.125 1h-7.875v-10h7.875c.5855058-.0307987 1.0869408.4149213 1.125 1z" />
        <path id="Shape"
          d="m54 44v8c-.0380592.5850787-.5394942 1.0307987-1.125 1h-7.875v-10h7.875c.5855058-.0307987 1.0869408.4149213 1.125 1z" />
        <path id="Rectangle-path" d="m14 5h25.77v10h-25.77z" />
        <path id="Rectangle-path" d="m14 24h25.77v10h-25.77z" />
        <path id="Rectangle-path" d="m14.119 43h25.77v10h-25.77z" />
      </g>
      <path id="Shape"
        d="m18 11h-3c-.5522847 0-1-.4477153-1-1 0-.55228475.4477153-1 1-1h3c.5522847 0 1 .44771525 1 1 0 .5522847-.4477153 1-1 1z"
        fill="#603e26" />
      <path id="Shape"
        d="m39 11h-3c-.5522847 0-1-.4477153-1-1 0-.55228475.4477153-1 1-1h3c.5522847 0 1 .44771525 1 1 0 .5522847-.4477153 1-1 1z"
        fill="#603e26" />
      <path id="Shape"
        d="m18 30h-3c-.5522847 0-1-.4477153-1-1s.4477153-1 1-1h3c.5522847 0 1 .4477153 1 1s-.4477153 1-1 1z"
        fill="#603e26" />
      <path id="Shape"
        d="m39 30h-3c-.5522847 0-1-.4477153-1-1s.4477153-1 1-1h3c.5522847 0 1 .4477153 1 1s-.4477153 1-1 1z"
        fill="#603e26" />
      <path id="Shape"
        d="m18 50h-3c-.5522847 0-1-.4477153-1-1s.4477153-1 1-1h3c.5522847 0 1 .4477153 1 1s-.4477153 1-1 1z"
        fill="#603e26" />
      <path id="Shape"
        d="m39 50h-3c-.5522847 0-1-.4477153-1-1s.4477153-1 1-1h3c.5522847 0 1 .4477153 1 1s-.4477153 1-1 1z"
        fill="#603e26" />
      <rect id="Rectangle-path" fill="#bdc3c7" height="58" rx="1" width="7" x="8" />
      <rect id="Rectangle-path" fill="#95a5a5" height="58" rx="1" width="3" x="10" />
      <rect id="Rectangle-path" fill="#bdc3c7" height="58" rx="1" width="7" x="39" />
      <circle id="Oval" cx="4" cy="10" fill="#bdc3c7" r="1" />
      <circle id="Oval" cx="4" cy="29" fill="#bdc3c7" r="1" />
      <circle id="Oval" cx="4" cy="48" fill="#bdc3c7" r="1" />
      <circle id="Oval" cx="50" cy="10" fill="#bdc3c7" r="1" />
      <circle id="Oval" cx="50" cy="29" fill="#bdc3c7" r="1" />
      <circle id="Oval" cx="50" cy="48" fill="#bdc3c7" r="1" />
      <rect id="Rectangle-path" fill="#95a5a5" height="58" rx="1" width="3" x="41" />
    </g>
  </g>
</svg>
