<?xml version="1.0" encoding="utf-8"?>
<!-- Generator: Adobe Illustrator 25.0.1, SVG Export Plug-In . SVG Version: 6.00 Build 0)  -->
<svg version="1.1" xmlns="http://www.w3.org/2000/svg" xmlns:xlink="http://www.w3.org/1999/xlink" x="0px" y="0px"
	 viewBox="0 0 72 512" style="enable-background:new 0 0 72 512;" xml:space="preserve">
<style type="text/css">
	.st0{fill:#303030;}
	.st1{fill:#404040;}
	.st2{fill:#616470;}
</style>
<g id="Слой_1">
	<rect x="20.2" class="st0" width="32" height="4"/>
	<rect x="20" y="256" class="st0" width="32" height="4"/>
	<path class="st1" d="M62.8,258H9.5c-3,0-5.3-2.4-5.3-5.3V7.3c0-3,2.4-5.3,5.3-5.3h53.3c3,0,5.3,2.4,5.3,5.3v245.3
		C68.2,255.6,65.8,258,62.8,258z"/>
	<rect x="12.3" y="2" class="st0" width="48" height="256"/>
	<g>
		<g>
			<rect x="4.3" y="228.1" class="st0" width="2" height="16"/>
			<rect x="66.2" y="228.1" class="st0" width="2" height="16"/>
		</g>
		<g>
			<rect x="4.3" y="14.5" class="st0" width="2" height="16"/>
			<rect x="66.2" y="14.5" class="st0" width="2" height="16"/>
		</g>
	</g>
	<g>
		<path class="st2" d="M5.5,56.5H4.2v-14h1.3c0.4,0,0.7,0.3,0.7,0.7v12.7C6.2,56.2,5.9,56.5,5.5,56.5z"/>
		<path class="st2" d="M5.5,76.1H4.2v-14h1.3c0.4,0,0.7,0.3,0.7,0.7v12.7C6.2,75.8,5.9,76.1,5.5,76.1z"/>
		<path class="st2" d="M5.5,95.7H4.2v-14h1.3c0.4,0,0.7,0.3,0.7,0.7v12.7C6.2,95.4,5.9,95.7,5.5,95.7z"/>
		<path class="st2" d="M5.5,115.4H4.2v-14h1.3c0.4,0,0.7,0.3,0.7,0.7v12.7C6.2,115.1,5.9,115.4,5.5,115.4z"/>
		<path class="st2" d="M5.5,135H4.2v-14h1.3c0.4,0,0.7,0.3,0.7,0.7v12.7C6.2,134.7,5.9,135,5.5,135z"/>
		<path class="st2" d="M5.5,154.6H4.2v-14h1.3c0.4,0,0.7,0.3,0.7,0.7v12.7C6.2,154.3,5.9,154.6,5.5,154.6z"/>
		<path class="st2" d="M5.5,174.2H4.2v-14h1.3c0.4,0,0.7,0.3,0.7,0.7v12.7C6.2,173.9,5.9,174.2,5.5,174.2z"/>
		<path class="st2" d="M5.5,193.8H4.2v-14h1.3c0.4,0,0.7,0.3,0.7,0.7v12.7C6.2,193.5,5.9,193.8,5.5,193.8z"/>
		<path class="st2" d="M5.5,213.5H4.2v-14h1.3c0.4,0,0.7,0.3,0.7,0.7v12.7C6.2,213.2,5.9,213.5,5.5,213.5z"/>
	</g>
	<g>
		<path class="st2" d="M66.8,56.5h1.3v-14h-1.3c-0.4,0-0.7,0.3-0.7,0.7v12.7C66.2,56.2,66.5,56.5,66.8,56.5z"/>
		<path class="st2" d="M66.8,76.1h1.3v-14h-1.3c-0.4,0-0.7,0.3-0.7,0.7v12.7C66.2,75.8,66.5,76.1,66.8,76.1z"/>
		<path class="st2" d="M66.8,95.7h1.3v-14h-1.3c-0.4,0-0.7,0.3-0.7,0.7v12.7C66.2,95.4,66.5,95.7,66.8,95.7z"/>
		<path class="st2" d="M66.8,115.4h1.3v-14h-1.3c-0.4,0-0.7,0.3-0.7,0.7v12.7C66.2,115.1,66.5,115.4,66.8,115.4z"/>
		<path class="st2" d="M66.8,135h1.3v-14h-1.3c-0.4,0-0.7,0.3-0.7,0.7v12.7C66.2,134.7,66.5,135,66.8,135z"/>
		<path class="st2" d="M66.8,154.6h1.3v-14h-1.3c-0.4,0-0.7,0.3-0.7,0.7v12.7C66.2,154.3,66.5,154.6,66.8,154.6z"/>
		<path class="st2" d="M66.8,174.2h1.3v-14h-1.3c-0.4,0-0.7,0.3-0.7,0.7v12.7C66.2,173.9,66.5,174.2,66.8,174.2z"/>
		<path class="st2" d="M66.8,193.8h1.3v-14h-1.3c-0.4,0-0.7,0.3-0.7,0.7v12.7C66.2,193.5,66.5,193.8,66.8,193.8z"/>
		<path class="st2" d="M66.8,213.5h1.3v-14h-1.3c-0.4,0-0.7,0.3-0.7,0.7v12.7C66.2,213.2,66.5,213.5,66.8,213.5z"/>
	</g>
</g>
<g id="Слой_4">
	<polygon class="st1" points="4,494.3 0.4,493.4 0.8,492.5 4.4,493.4 	"/>
	<polygon class="st1" points="68,494.3 71.6,493.4 71.2,492.5 67.6,493.4 	"/>
</g>
<g id="Слой_2">
	<rect x="20" y="263.9" class="st0" width="32" height="4"/>
	<path class="st1" d="M55.9,512H16.2C9.5,512,4,506.5,4,499.8V271.1c0-2.9,2.3-5.2,5.2-5.2h53.6c2.9,0,5.2,2.3,5.2,5.2v228.8
		C68,506.6,62.6,512,55.9,512z"/>
	<path class="st0" d="M55.5,512H16.8c-2.6,0-4.7-2.1-4.7-4.7V266.5c0-0.3,0.2-0.5,0.5-0.5h47c0.3,0,0.5,0.2,0.5,0.5v240.8
		C60.2,509.9,58.1,512,55.5,512z"/>
	<g>
		<g>
			<rect x="4.1" y="449.2" class="st0" width="2" height="16"/>
			<rect x="66" y="449.2" class="st0" width="2" height="16"/>
		</g>
		<g>
			<rect x="4.1" y="235.6" class="st0" width="2" height="16"/>
			<rect x="66" y="235.6" class="st0" width="2" height="16"/>
		</g>
	</g>
	<g>
		<path class="st2" d="M5.3,320.4H4v-14h1.3c0.4,0,0.7,0.3,0.7,0.7v12.7C6,320.1,5.7,320.4,5.3,320.4z"/>
		<path class="st2" d="M5.3,340.1H4v-14h1.3c0.4,0,0.7,0.3,0.7,0.7v12.7C6,339.8,5.7,340.1,5.3,340.1z"/>
		<path class="st2" d="M5.3,359.7H4v-14h1.3c0.4,0,0.7,0.3,0.7,0.7V359C6,359.4,5.7,359.7,5.3,359.7z"/>
		<path class="st2" d="M5.3,379.3H4v-14h1.3c0.4,0,0.7,0.3,0.7,0.7v12.7C6,379,5.7,379.3,5.3,379.3z"/>
		<path class="st2" d="M5.3,398.9H4v-14h1.3c0.4,0,0.7,0.3,0.7,0.7v12.7C6,398.6,5.7,398.9,5.3,398.9z"/>
		<path class="st2" d="M5.3,418.5H4v-14h1.3c0.4,0,0.7,0.3,0.7,0.7v12.7C6,418.2,5.7,418.5,5.3,418.5z"/>
		<path class="st2" d="M5.3,438.2H4v-14h1.3c0.4,0,0.7,0.3,0.7,0.7v12.7C6,437.9,5.7,438.2,5.3,438.2z"/>
	</g>
	<g>
		<path class="st2" d="M66.6,314.1h1.3v-14h-1.3c-0.4,0-0.7,0.3-0.7,0.7v12.7C65.9,313.8,66.2,314.1,66.6,314.1z"/>
		<path class="st2" d="M66.6,333.7h1.3v-14h-1.3c-0.4,0-0.7,0.3-0.7,0.7v12.7C65.9,333.4,66.2,333.7,66.6,333.7z"/>
		<path class="st2" d="M66.6,353.3h1.3v-14h-1.3c-0.4,0-0.7,0.3-0.7,0.7v12.7C65.9,353,66.2,353.3,66.6,353.3z"/>
		<path class="st2" d="M66.6,373h1.3v-14h-1.3c-0.4,0-0.7,0.3-0.7,0.7v12.7C65.9,372.7,66.2,373,66.6,373z"/>
		<path class="st2" d="M66.6,392.6h1.3v-14h-1.3c-0.4,0-0.7,0.3-0.7,0.7v12.7C65.9,392.3,66.2,392.6,66.6,392.6z"/>
		<path class="st2" d="M66.6,412.2h1.3v-14h-1.3c-0.4,0-0.7,0.3-0.7,0.7v12.7C65.9,411.9,66.2,412.2,66.6,412.2z"/>
		<path class="st2" d="M66.6,431.8h1.3v-14h-1.3c-0.4,0-0.7,0.3-0.7,0.7v12.7C65.9,431.5,66.2,431.8,66.6,431.8z"/>
		<path class="st2" d="M66.6,492.5h1.3v-14h-1.3c-0.4,0-0.7,0.3-0.7,0.7v12.7C65.9,492.2,66.2,492.5,66.6,492.5z"/>
		<path class="st2" d="M5.3,492.5H4v-14h1.3c0.4,0,0.7,0.3,0.7,0.7v12.7C6,492.2,5.7,492.5,5.3,492.5z"/>
	</g>
</g>
<g id="Слой_3">
	<rect x="20" y="260" class="st1" width="32" height="4"/>
	<g>
	</g>
	<g>
	</g>
	<g>
	</g>
	<g>
	</g>
	<g>
	</g>
	<g>
	</g>
	<g>
	</g>
	<g>
	</g>
	<g>
	</g>
	<g>
	</g>
	<g>
	</g>
	<g>
	</g>
	<g>
	</g>
	<g>
	</g>
	<g>
	</g>
</g>
</svg>
